%TF.GenerationSoftware,KiCad,Pcbnew,9.0.2*%
%TF.CreationDate,2025-05-18T21:43:27-07:00*%
%TF.ProjectId,proj,70726f6a-2e6b-4696-9361-645f70636258,rev?*%
%TF.SameCoordinates,Original*%
%TF.FileFunction,Soldermask,Top*%
%TF.FilePolarity,Negative*%
%FSLAX46Y46*%
G04 Gerber Fmt 4.6, Leading zero omitted, Abs format (unit mm)*
G04 Created by KiCad (PCBNEW 9.0.2) date 2025-05-18 21:43:27*
%MOMM*%
%LPD*%
G01*
G04 APERTURE LIST*
G04 Aperture macros list*
%AMRoundRect*
0 Rectangle with rounded corners*
0 $1 Rounding radius*
0 $2 $3 $4 $5 $6 $7 $8 $9 X,Y pos of 4 corners*
0 Add a 4 corners polygon primitive as box body*
4,1,4,$2,$3,$4,$5,$6,$7,$8,$9,$2,$3,0*
0 Add four circle primitives for the rounded corners*
1,1,$1+$1,$2,$3*
1,1,$1+$1,$4,$5*
1,1,$1+$1,$6,$7*
1,1,$1+$1,$8,$9*
0 Add four rect primitives between the rounded corners*
20,1,$1+$1,$2,$3,$4,$5,0*
20,1,$1+$1,$4,$5,$6,$7,0*
20,1,$1+$1,$6,$7,$8,$9,0*
20,1,$1+$1,$8,$9,$2,$3,0*%
G04 Aperture macros list end*
%ADD10RoundRect,0.152400X-1.063600X-0.609600X1.063600X-0.609600X1.063600X0.609600X-1.063600X0.609600X0*%
%ADD11C,1.524000*%
%ADD12RoundRect,0.152400X1.063600X0.609600X-1.063600X0.609600X-1.063600X-0.609600X1.063600X-0.609600X0*%
%ADD13C,1.700000*%
%ADD14C,4.000000*%
%ADD15C,2.200000*%
%ADD16R,1.600000X0.850000*%
G04 APERTURE END LIST*
D10*
%TO.C,U1*%
X194192500Y-68580000D03*
D11*
X193357500Y-68580000D03*
D10*
X194192500Y-71120000D03*
D11*
X193357500Y-71120000D03*
D10*
X194192500Y-73660000D03*
D11*
X193357500Y-73660000D03*
D10*
X194192500Y-76200000D03*
D11*
X193357500Y-76200000D03*
D10*
X194192500Y-78740000D03*
D11*
X193357500Y-78740000D03*
D10*
X194192500Y-81280000D03*
D11*
X193357500Y-81280000D03*
D10*
X194192500Y-83820000D03*
D11*
X193357500Y-83820000D03*
X178117500Y-83820000D03*
D12*
X177282500Y-83820000D03*
D11*
X178117500Y-81280000D03*
D12*
X177282500Y-81280000D03*
D11*
X178117500Y-78740000D03*
D12*
X177282500Y-78740000D03*
D11*
X178117500Y-76200000D03*
D12*
X177282500Y-76200000D03*
D11*
X178117500Y-73660000D03*
D12*
X177282500Y-73660000D03*
D11*
X178117500Y-71120000D03*
D12*
X177282500Y-71120000D03*
D11*
X178117500Y-68580000D03*
D12*
X177282500Y-68580000D03*
%TD*%
D13*
%TO.C,SW4*%
X202088750Y-80962500D03*
D14*
X207168750Y-80962500D03*
D13*
X212248750Y-80962500D03*
D15*
X209708750Y-75882500D03*
X203358750Y-78422500D03*
%TD*%
D13*
%TO.C,SW3*%
X202088750Y-100012500D03*
D14*
X207168750Y-100012500D03*
D13*
X212248750Y-100012500D03*
D15*
X209708750Y-94932500D03*
X203358750Y-97472500D03*
%TD*%
D13*
%TO.C,SW2*%
X156845000Y-100012500D03*
D14*
X161925000Y-100012500D03*
D13*
X167005000Y-100012500D03*
D15*
X164465000Y-94932500D03*
X158115000Y-97472500D03*
%TD*%
D13*
%TO.C,SW1*%
X156845000Y-80962500D03*
D14*
X161925000Y-80962500D03*
D13*
X167005000Y-80962500D03*
D15*
X164465000Y-75882500D03*
X158115000Y-78422500D03*
%TD*%
D16*
%TO.C,D2*%
X184243750Y-102681250D03*
X184243750Y-104431250D03*
X187743750Y-104431250D03*
X187743750Y-102681250D03*
%TD*%
%TO.C,D1*%
X184500000Y-90950000D03*
X184500000Y-92700000D03*
X188000000Y-92700000D03*
X188000000Y-90950000D03*
%TD*%
M02*
