%TF.GenerationSoftware,KiCad,Pcbnew,9.0.2*%
%TF.CreationDate,2025-05-18T21:43:26-07:00*%
%TF.ProjectId,proj,70726f6a-2e6b-4696-9361-645f70636258,rev?*%
%TF.SameCoordinates,Original*%
%TF.FileFunction,Copper,L2,Bot*%
%TF.FilePolarity,Positive*%
%FSLAX46Y46*%
G04 Gerber Fmt 4.6, Leading zero omitted, Abs format (unit mm)*
G04 Created by KiCad (PCBNEW 9.0.2) date 2025-05-18 21:43:26*
%MOMM*%
%LPD*%
G01*
G04 APERTURE LIST*
%TA.AperFunction,ComponentPad*%
%ADD10C,1.524000*%
%TD*%
%TA.AperFunction,ComponentPad*%
%ADD11C,2.200000*%
%TD*%
%TA.AperFunction,ViaPad*%
%ADD12C,0.600000*%
%TD*%
%TA.AperFunction,Conductor*%
%ADD13C,0.200000*%
%TD*%
G04 APERTURE END LIST*
D10*
%TO.P,U1,14,VBUS*%
%TO.N,+5V*%
X193357500Y-68580000D03*
%TO.P,U1,13,GND*%
%TO.N,GND*%
X193357500Y-71120000D03*
%TO.P,U1,12,3V3*%
%TO.N,unconnected-(U1-3V3-Pad12)*%
X193357500Y-73660000D03*
%TO.P,U1,11,GPIO3/MOSI*%
%TO.N,Net-(U1-GPIO3{slash}MOSI)*%
X193357500Y-76200000D03*
%TO.P,U1,10,GPIO4/MISO*%
%TO.N,Net-(U1-GPIO4{slash}MISO)*%
X193357500Y-78740000D03*
%TO.P,U1,9,GPIO2/SCK*%
%TO.N,Net-(U1-GPIO2{slash}SCK)*%
X193357500Y-81280000D03*
%TO.P,U1,8,GPIO1/RX*%
%TO.N,Net-(U1-GPIO1{slash}RX)*%
X193357500Y-83820000D03*
%TO.P,U1,7,GPIO0/TX*%
%TO.N,unconnected-(U1-GPIO0{slash}TX-Pad7)*%
X178117500Y-83820000D03*
%TO.P,U1,6,GPIO7/SCL*%
%TO.N,unconnected-(U1-GPIO7{slash}SCL-Pad6)*%
X178117500Y-81280000D03*
%TO.P,U1,5,GPIO6/SDA*%
%TO.N,Net-(D1-DIN)*%
X178117500Y-78740000D03*
%TO.P,U1,4,GPIO29/ADC3/A3*%
%TO.N,unconnected-(U1-GPIO29{slash}ADC3{slash}A3-Pad4)*%
X178117500Y-76200000D03*
%TO.P,U1,3,GPIO28/ADC2/A2*%
%TO.N,unconnected-(U1-GPIO28{slash}ADC2{slash}A2-Pad3)*%
X178117500Y-73660000D03*
%TO.P,U1,2,GPIO27/ADC1/A1*%
%TO.N,unconnected-(U1-GPIO27{slash}ADC1{slash}A1-Pad2)*%
X178117500Y-71120000D03*
%TO.P,U1,1,GPIO26/ADC0/A0*%
%TO.N,unconnected-(U1-GPIO26{slash}ADC0{slash}A0-Pad1)*%
X178117500Y-68580000D03*
%TD*%
D11*
%TO.P,SW4,1,1*%
%TO.N,GND*%
X209708750Y-75882500D03*
%TO.P,SW4,2,2*%
%TO.N,Net-(U1-GPIO3{slash}MOSI)*%
X203358750Y-78422500D03*
%TD*%
%TO.P,SW3,1,1*%
%TO.N,GND*%
X209708750Y-94932500D03*
%TO.P,SW3,2,2*%
%TO.N,Net-(U1-GPIO4{slash}MISO)*%
X203358750Y-97472500D03*
%TD*%
%TO.P,SW2,1,1*%
%TO.N,GND*%
X164465000Y-94932500D03*
%TO.P,SW2,2,2*%
%TO.N,Net-(U1-GPIO2{slash}SCK)*%
X158115000Y-97472500D03*
%TD*%
%TO.P,SW1,1,1*%
%TO.N,GND*%
X164465000Y-75882500D03*
%TO.P,SW1,2,2*%
%TO.N,Net-(U1-GPIO1{slash}RX)*%
X158115000Y-78422500D03*
%TD*%
D12*
%TO.N,Net-(D1-DIN)*%
X174700000Y-87100000D03*
X175400000Y-85483000D03*
X190300000Y-84283000D03*
X188000000Y-92700000D03*
%TD*%
D13*
%TO.N,Net-(D1-DIN)*%
X174700000Y-87100000D02*
X174700000Y-82157500D01*
X174700000Y-82157500D02*
X178117500Y-78740000D01*
X175400000Y-81457500D02*
X178117500Y-78740000D01*
X175400000Y-85483000D02*
X175400000Y-81457500D01*
X190300000Y-90500000D02*
X191300000Y-91500000D01*
X190300000Y-84283000D02*
X190300000Y-90500000D01*
X191300000Y-91500000D02*
X190100000Y-92700000D01*
X190100000Y-92700000D02*
X188000000Y-92700000D01*
%TD*%
M02*
